%TF.GenerationSoftware,KiCad,Pcbnew,8.0.2*%
%TF.CreationDate,2024-05-13T11:46:23-04:00*%
%TF.ProjectId,IBM-PS2-Model-70-HDD-Power-adapter,49424d2d-5053-4322-9d4d-6f64656c2d37,rev?*%
%TF.SameCoordinates,Original*%
%TF.FileFunction,Copper,L2,Bot*%
%TF.FilePolarity,Positive*%
%FSLAX46Y46*%
G04 Gerber Fmt 4.6, Leading zero omitted, Abs format (unit mm)*
G04 Created by KiCad (PCBNEW 8.0.2) date 2024-05-13 11:46:23*
%MOMM*%
%LPD*%
G01*
G04 APERTURE LIST*
%TA.AperFunction,SMDPad,CuDef*%
%ADD10R,1.600000X11.000000*%
%TD*%
%TA.AperFunction,SMDPad,CuDef*%
%ADD11R,1.200000X11.000000*%
%TD*%
%TA.AperFunction,ComponentPad*%
%ADD12R,2.780000X2.780000*%
%TD*%
%TA.AperFunction,ComponentPad*%
%ADD13C,2.780000*%
%TD*%
%TA.AperFunction,ViaPad*%
%ADD14C,0.800000*%
%TD*%
%TA.AperFunction,Conductor*%
%ADD15C,0.800000*%
%TD*%
%TA.AperFunction,Conductor*%
%ADD16C,1.000000*%
%TD*%
G04 APERTURE END LIST*
D10*
X187962651Y-79724598D03*
D11*
X185422651Y-79724598D03*
X182882651Y-79724598D03*
D10*
X180342651Y-79724598D03*
X177802651Y-79724598D03*
X175262651Y-79724598D03*
X172722651Y-79724598D03*
X170182651Y-79724598D03*
X167642651Y-79724598D03*
X165102651Y-79724598D03*
X162562651Y-79724598D03*
X160022651Y-79724598D03*
X157482651Y-79724598D03*
X154942651Y-79724598D03*
X152402651Y-79724598D03*
X149862651Y-79724598D03*
X147322651Y-79724598D03*
X144782651Y-79724598D03*
X142242651Y-79724598D03*
X139702651Y-79724598D03*
X137162651Y-79724598D03*
X134622651Y-79724598D03*
X132082651Y-79724598D03*
X129542651Y-79724598D03*
X127002651Y-79724598D03*
X124462651Y-79724598D03*
X121922651Y-79724598D03*
X119382651Y-79724598D03*
X116842651Y-79724598D03*
X114302651Y-79724598D03*
X111762651Y-79724598D03*
X109222651Y-79724598D03*
X106682651Y-79724598D03*
X104142651Y-79724598D03*
X101602651Y-79724598D03*
X99062651Y-79724598D03*
D12*
X153950000Y-90810000D03*
D13*
X148870000Y-90810000D03*
X143790000Y-90810000D03*
X138710000Y-90810000D03*
D14*
X132442651Y-88820000D03*
D15*
X151960000Y-88820000D02*
X153950000Y-90810000D01*
X132442651Y-88820000D02*
X151960000Y-88820000D01*
D16*
X154160000Y-95000000D02*
X149970000Y-90810000D01*
D15*
X177802651Y-79724598D02*
X177802651Y-84684598D01*
X177802651Y-84684598D02*
X167487249Y-95000000D01*
X182750000Y-79724598D02*
X182750000Y-84474598D01*
D16*
X149970000Y-90810000D02*
X148870000Y-90810000D01*
D15*
X172224598Y-95000000D02*
X167487249Y-95000000D01*
D16*
X167487249Y-95000000D02*
X154160000Y-95000000D01*
D15*
X182750000Y-84474598D02*
X172224598Y-95000000D01*
X99062651Y-84424598D02*
X106819026Y-92180974D01*
D16*
X106819026Y-92180974D02*
X109638053Y-95000000D01*
X109638053Y-95000000D02*
X139600000Y-95000000D01*
D15*
X99062651Y-79724598D02*
X99062651Y-84424598D01*
D16*
X139600000Y-95000000D02*
X143790000Y-90810000D01*
D15*
X106682651Y-92044599D02*
X106819026Y-92180974D01*
X106682651Y-79724598D02*
X106682651Y-92044599D01*
M02*
