%TF.GenerationSoftware,KiCad,Pcbnew,8.0.2*%
%TF.CreationDate,2024-05-13T11:46:17-04:00*%
%TF.ProjectId,IBM-PS2-Model-70-HDD-Power-adapter,49424d2d-5053-4322-9d4d-6f64656c2d37,rev?*%
%TF.SameCoordinates,Original*%
%TF.FileFunction,Drillmap*%
%TF.FilePolarity,Positive*%
%FSLAX45Y45*%
G04 Gerber Fmt 4.5, Leading zero omitted, Abs format (unit mm)*
G04 Created by KiCad (PCBNEW 8.0.2) date 2024-05-13 11:46:17*
%MOMM*%
%LPD*%
G01*
G04 APERTURE LIST*
%ADD10C,0.050000*%
%ADD11C,0.200000*%
G04 APERTURE END LIST*
D10*
X9654000Y-9728000D02*
X19045000Y-9728000D01*
X9630000Y-8500000D02*
X9630000Y-9700000D01*
X9680000Y-7400000D02*
X9680000Y-8500000D01*
X19075000Y-8500000D02*
X19075000Y-9700000D01*
X18365000Y-7366000D02*
X18365000Y-8597939D01*
X19025000Y-7400000D02*
X19025000Y-8500000D01*
X9680000Y-8500000D02*
X9630000Y-8500000D01*
X18465000Y-8597900D02*
X18365000Y-8597939D01*
X9654000Y-9728000D02*
G75*
G02*
X9629995Y-9700000I6520J29880D01*
G01*
X18465000Y-7366000D02*
X18990000Y-7366000D01*
X18465000Y-7366000D02*
X18465000Y-8597900D01*
X18365000Y-7366000D02*
X9710000Y-7366000D01*
X9680000Y-7400000D02*
G75*
G02*
X9710000Y-7366001I34470J-180D01*
G01*
X19075000Y-9700000D02*
G75*
G02*
X19045000Y-9727995I-29770J1830D01*
G01*
X18990000Y-7366000D02*
G75*
G02*
X19025005Y-7400000I1010J-33980D01*
G01*
X19075000Y-8500000D02*
X19025000Y-8500000D01*
D11*
X9888277Y-10041984D02*
X9888277Y-9841984D01*
X9888277Y-9841984D02*
X9935896Y-9841984D01*
X9935896Y-9841984D02*
X9964467Y-9851508D01*
X9964467Y-9851508D02*
X9983515Y-9870555D01*
X9983515Y-9870555D02*
X9993039Y-9889603D01*
X9993039Y-9889603D02*
X10002563Y-9927698D01*
X10002563Y-9927698D02*
X10002563Y-9956270D01*
X10002563Y-9956270D02*
X9993039Y-9994365D01*
X9993039Y-9994365D02*
X9983515Y-10013412D01*
X9983515Y-10013412D02*
X9964467Y-10032460D01*
X9964467Y-10032460D02*
X9935896Y-10041984D01*
X9935896Y-10041984D02*
X9888277Y-10041984D01*
X10088277Y-10041984D02*
X10088277Y-9908650D01*
X10088277Y-9946746D02*
X10097801Y-9927698D01*
X10097801Y-9927698D02*
X10107324Y-9918174D01*
X10107324Y-9918174D02*
X10126372Y-9908650D01*
X10126372Y-9908650D02*
X10145420Y-9908650D01*
X10212086Y-10041984D02*
X10212086Y-9908650D01*
X10212086Y-9841984D02*
X10202563Y-9851508D01*
X10202563Y-9851508D02*
X10212086Y-9861031D01*
X10212086Y-9861031D02*
X10221610Y-9851508D01*
X10221610Y-9851508D02*
X10212086Y-9841984D01*
X10212086Y-9841984D02*
X10212086Y-9861031D01*
X10335896Y-10041984D02*
X10316848Y-10032460D01*
X10316848Y-10032460D02*
X10307324Y-10013412D01*
X10307324Y-10013412D02*
X10307324Y-9841984D01*
X10440658Y-10041984D02*
X10421610Y-10032460D01*
X10421610Y-10032460D02*
X10412086Y-10013412D01*
X10412086Y-10013412D02*
X10412086Y-9841984D01*
X10669229Y-10041984D02*
X10669229Y-9841984D01*
X10669229Y-9841984D02*
X10735896Y-9984841D01*
X10735896Y-9984841D02*
X10802563Y-9841984D01*
X10802563Y-9841984D02*
X10802563Y-10041984D01*
X10983515Y-10041984D02*
X10983515Y-9937222D01*
X10983515Y-9937222D02*
X10973991Y-9918174D01*
X10973991Y-9918174D02*
X10954944Y-9908650D01*
X10954944Y-9908650D02*
X10916848Y-9908650D01*
X10916848Y-9908650D02*
X10897801Y-9918174D01*
X10983515Y-10032460D02*
X10964467Y-10041984D01*
X10964467Y-10041984D02*
X10916848Y-10041984D01*
X10916848Y-10041984D02*
X10897801Y-10032460D01*
X10897801Y-10032460D02*
X10888277Y-10013412D01*
X10888277Y-10013412D02*
X10888277Y-9994365D01*
X10888277Y-9994365D02*
X10897801Y-9975317D01*
X10897801Y-9975317D02*
X10916848Y-9965793D01*
X10916848Y-9965793D02*
X10964467Y-9965793D01*
X10964467Y-9965793D02*
X10983515Y-9956270D01*
X11078753Y-9908650D02*
X11078753Y-10108650D01*
X11078753Y-9918174D02*
X11097801Y-9908650D01*
X11097801Y-9908650D02*
X11135896Y-9908650D01*
X11135896Y-9908650D02*
X11154944Y-9918174D01*
X11154944Y-9918174D02*
X11164467Y-9927698D01*
X11164467Y-9927698D02*
X11173991Y-9946746D01*
X11173991Y-9946746D02*
X11173991Y-10003889D01*
X11173991Y-10003889D02*
X11164467Y-10022936D01*
X11164467Y-10022936D02*
X11154944Y-10032460D01*
X11154944Y-10032460D02*
X11135896Y-10041984D01*
X11135896Y-10041984D02*
X11097801Y-10041984D01*
X11097801Y-10041984D02*
X11078753Y-10032460D01*
X11259705Y-10022936D02*
X11269229Y-10032460D01*
X11269229Y-10032460D02*
X11259705Y-10041984D01*
X11259705Y-10041984D02*
X11250182Y-10032460D01*
X11250182Y-10032460D02*
X11259705Y-10022936D01*
X11259705Y-10022936D02*
X11259705Y-10041984D01*
X11259705Y-9918174D02*
X11269229Y-9927698D01*
X11269229Y-9927698D02*
X11259705Y-9937222D01*
X11259705Y-9937222D02*
X11250182Y-9927698D01*
X11250182Y-9927698D02*
X11259705Y-9918174D01*
X11259705Y-9918174D02*
X11259705Y-9937222D01*
M02*
