%TF.GenerationSoftware,KiCad,Pcbnew,8.0.2*%
%TF.CreationDate,2024-05-13T11:46:24-04:00*%
%TF.ProjectId,IBM-PS2-Model-70-HDD-Power-adapter,49424d2d-5053-4322-9d4d-6f64656c2d37,rev?*%
%TF.SameCoordinates,Original*%
%TF.FileFunction,Legend,Top*%
%TF.FilePolarity,Positive*%
%FSLAX46Y46*%
G04 Gerber Fmt 4.6, Leading zero omitted, Abs format (unit mm)*
G04 Created by KiCad (PCBNEW 8.0.2) date 2024-05-13 11:46:24*
%MOMM*%
%LPD*%
G01*
G04 APERTURE LIST*
%ADD10C,0.120000*%
G04 APERTURE END LIST*
D10*
X159180000Y-92670000D02*
X158100000Y-92670000D01*
X159180000Y-88950000D02*
X159180000Y-92670000D01*
X158100000Y-93950000D02*
X158100000Y-87670000D01*
X158100000Y-88950000D02*
X159180000Y-88950000D01*
X156960000Y-86530000D02*
X135700000Y-86530000D01*
X156900000Y-94030000D02*
X135760000Y-94030000D01*
X156900000Y-89420000D02*
X156900000Y-94030000D01*
X156420000Y-96480000D02*
X154730000Y-96480000D01*
X156420000Y-95090000D02*
X156420000Y-96480000D01*
X155070000Y-87590000D02*
X156900000Y-89420000D01*
X154730000Y-96480000D02*
X154730000Y-95090000D01*
X151530000Y-96480000D02*
X149840000Y-96480000D01*
X151530000Y-95090000D02*
X151530000Y-96480000D01*
X149840000Y-96480000D02*
X149840000Y-95090000D01*
X146450000Y-96480000D02*
X144760000Y-96480000D01*
X146450000Y-95090000D02*
X146450000Y-96480000D01*
X144760000Y-96480000D02*
X144760000Y-95090000D01*
X141350000Y-96480000D02*
X139660000Y-96480000D01*
X141350000Y-95090000D02*
X141350000Y-96480000D01*
X139660000Y-96480000D02*
X139660000Y-95090000D01*
X137590000Y-87590000D02*
X155070000Y-87590000D01*
X136250000Y-96480000D02*
X134560000Y-96480000D01*
X136250000Y-95090000D02*
X136250000Y-96480000D01*
X135760000Y-94030000D02*
X135760000Y-89420000D01*
X135760000Y-89420000D02*
X137590000Y-87590000D01*
X135700000Y-95090000D02*
X156960000Y-95090000D01*
X134560000Y-88950000D02*
X133480000Y-88950000D01*
X134560000Y-87670000D02*
X134560000Y-96480000D01*
X133480000Y-92670000D02*
X134560000Y-92670000D01*
X133480000Y-88950000D02*
X133480000Y-92670000D01*
X158100000Y-93950000D02*
G75*
G02*
X156960000Y-95090000I-1139999J-1D01*
G01*
X156960000Y-86530000D02*
G75*
G02*
X158100000Y-87670000I1J-1139999D01*
G01*
X135700000Y-95090000D02*
G75*
G02*
X134560000Y-93950000I0J1140000D01*
G01*
X134560000Y-87670000D02*
G75*
G02*
X135700000Y-86530000I1140000J0D01*
G01*
M02*
